<?xml version="1.0" encoding="UTF-8"?>
<!DOCTYPE svg PUBLIC "-//W3C//DTD SVG 1.1//EN" "http://www.w3.org/Graphics/SVG/1.1/DTD/svg11.dtd">
<!-- Creator: CorelDRAW 2021 (64-Bit Evaluation Version) -->
<svg xmlns="http://www.w3.org/2000/svg" xml:space="preserve" width="2.83228in" height="0.677165in" version="1.1" style="shape-rendering:geometricPrecision; text-rendering:geometricPrecision; image-rendering:optimizeQuality; fill-rule:evenodd; clip-rule:evenodd"
viewBox="0 0 2832.28 677.17"
 xmlns:xlink="http://www.w3.org/1999/xlink"
 xmlns:xodm="http://www.corel.com/coreldraw/odm/2003">
 <defs>
  <style type="text/css">
   <![CDATA[
    .fil0 {fill:white;fill-rule:nonzero}
   ]]>
  </style>
 </defs>
 <g id="Layer_x0020_1">
  <metadata id="CorelCorpID_0Corel-Layer"/>
  <g id="_2783443447024">
   <path class="fil0" d="M401.74 610.96c1.24,1.86 4.34,4.96 9.31,9.31 22.33,20.47 28.85,32.57 19.54,36.29 -1.24,0 -2.17,0.31 -2.79,0.93 -8.06,0 -19.23,-0.15 -33.5,-0.46 -14.27,-0.31 -27.3,-0.78 -39.08,-1.39 -11.79,-0.62 -24.19,-0.78 -37.22,-0.47 -13.03,0.31 -23.88,1.4 -32.57,3.26 -7.44,1.24 -13.34,0.93 -17.68,-0.93 -8.69,-2.48 -13.96,-6.82 -15.82,-13.03 -0.62,-2.48 -0.31,-5.27 0.93,-8.37 6.83,-20.47 5.58,-46.53 -3.72,-78.17 -6.83,-21.09 -17.68,-48.7 -32.57,-82.82 -13.03,-29.16 -28.54,-64.21 -46.53,-105.15 -11.17,4.34 -16.75,11.48 -16.75,21.4 1.24,70.72 1.86,132.14 1.86,184.25 0,5.58 1.4,13.03 4.19,22.33 2.79,9.31 5.74,16.44 8.84,21.4 1.24,2.48 3.26,5.43 6.05,8.84 2.79,3.41 5.43,6.67 7.91,9.77 2.48,3.1 4.65,6.2 6.51,9.3 1.24,2.48 1.55,4.34 0.93,5.58 -0.62,1.86 -1.71,2.95 -3.26,3.26 -1.55,0.31 -3.26,0.78 -5.12,1.39 -9.3,0 -24.97,-0.31 -46.99,-0.93 -22.02,-0.62 -42.34,-0.93 -60.95,-0.93 -18.61,0 -34.12,0.93 -46.53,2.79 -7.44,1.24 -13.33,0.93 -17.68,-0.93 -7.44,-2.48 -10.55,-6.82 -9.31,-13.03 0.62,-1.86 2.17,-4.65 4.65,-8.37 15.51,-20.47 25.13,-46.53 28.85,-78.17 2.48,-21.09 3.72,-48.7 3.72,-82.82 -1.86,-119.11 -2.79,-181.15 -2.79,-186.11 0,-4.96 0.62,-27.3 1.86,-67 1.24,-39.7 0.62,-62.04 -1.86,-67 -3.1,-34.12 -3.72,-59.56 -1.86,-76.3 1.86,-16.75 -3.41,-30.4 -15.82,-40.94 -6.83,-5.58 -10.55,-9 -11.17,-10.24 -3.72,-5.58 -3.41,-9.93 0.93,-13.03 1.24,-1.24 3.41,-1.86 6.51,-1.86 20.47,-3.1 67.31,-4.34 140.52,-3.72 60.17,0 104.53,4.96 133.07,14.89 47.77,17.37 81.58,45.29 101.43,83.75 17.37,33.5 25.12,67 23.26,100.5 -6.83,77.55 -50.56,126.24 -131.21,146.1 1.86,3.72 2.79,5.89 2.79,6.51l27.92 62.35c35.36,79.41 57.69,130.28 67,152.61 6.82,14.89 14.89,26.67 24.19,35.36zm-29.78 -469.93c0,0.62 0,1.39 0,2.33 0,0.93 0.31,1.39 0.93,1.39 0.62,-1.24 0.31,-2.48 -0.93,-3.72zm-0.93 9.31l0 0.93 0.93 0.93 -0.93 -1.86zm0 3.72l-0.93 1.86 0.93 0.93c0.62,-1.24 0.62,-2.17 0,-2.79zm-1.86 -35.36c0,0 -0.31,-0.62 -0.93,-1.86l0.93 1.86zm-87.47 216.82c0,0 0,-0.31 0,-0.93l0 0.93zm3.72 -36.29l0.93 0c-0.62,-0.62 -0.93,-0.62 -0.93,0zm6.51 28.85c-2.48,1.24 -3.1,2.48 -1.86,3.72 1.86,3.1 3.72,3.72 5.58,1.86 0.62,-0.62 0.62,-1.55 0,-2.79 0,-0.62 -0.46,-0.93 -1.4,-0.93 -0.93,0 -1.7,-0.62 -2.33,-1.86zm-1.86 -12.09l0.93 0c0,0 -0.31,0 -0.93,0zm0.93 2.79l-0.93 0 0.93 0zm2.79 -19.54l-0.93 1.86c0,0 0.15,-0.15 0.46,-0.46 0.31,-0.31 0.46,-0.78 0.46,-1.4zm10.24 25.13c0,2.48 1.24,3.41 3.72,2.79 3.1,-1.24 3.72,-2.48 1.86,-3.72 -1.86,-2.48 -3.72,-2.17 -5.58,0.93zm10.24 -236.36l0 0.93 0 -0.93zm0 0.93c0.62,0.62 0.93,0.93 0.93,0.93 -0.62,0 -0.93,-0.15 -0.93,-0.46 0,-0.31 0,-0.46 0,-0.46zm2.79 -14.89l-0.93 -1.86c-0.62,0 -0.78,0.31 -0.46,0.93 0.31,0.62 0.78,0.93 1.39,0.93zm18.61 206.58c1.24,-0.62 2.48,-1.86 3.72,-3.72 -0.62,-0.62 -1.71,-0.31 -3.26,0.93 -1.55,1.24 -1.71,2.17 -0.47,2.79zm15.82 -71.65c0,1.24 0.16,1.71 0.47,1.4 0.31,-0.31 0.46,-0.78 0.46,-1.4 -0.62,0 -0.93,0 -0.93,0zm2.8 -5.58l0 0zm0.93 62.35l0 -1.86 0.93 0 -0.93 1.86zm10.24 -150.75l0.93 1.86c-0.62,-0.62 -0.93,-1.24 -0.93,-1.86zm-0.93 -6.52l0.93 2.79 -0.93 -2.79zm-2.8 150.75c0,0.62 0,0.93 0,0.93 0,0 0,-0.31 0,-0.93zm-1.86 -4.65c-0.62,0 -0.93,0 -0.93,0l0.93 0zm-2.79 -15.82c1.24,-1.24 1.86,-3.1 1.86,-5.58 -0.62,0.62 -1.24,1.55 -1.86,2.79 -0.62,1.24 -0.62,2.17 0,2.79zm-1.86 -101.43l-0.93 0 0.93 0zm-0.93 -35.36c0,-0.62 -0.16,-0.93 -0.47,-0.93 -0.31,0 -0.46,0.31 -0.46,0.93l0.93 0zm-1.86 26.06l0.93 0.93c0,-0.62 -0.31,-0.93 -0.93,-0.93zm0.93 43.74l0 1.86 0 -1.86zm-0.93 -50.25c-0.62,0 -0.93,0 -0.93,0 0,0.62 0.31,0.62 0.93,0zm-0.93 -19.54l-0.93 1.86c0.62,0 0.93,-0.15 0.93,-0.46 0,-0.31 0,-0.78 0,-1.39zm-1.86 61.42l0 1.86c0.62,-0.62 0.62,-1.24 0,-1.86zm1.86 107.01l-1.86 0c0,0.62 0.62,0.62 1.86,0zm-5.58 24.19c-1.24,0.62 -1.86,1.24 -1.86,1.86 0,1.24 0.93,1.55 2.79,0.93 2.48,0 2.79,-0.93 0.93,-2.8 0,-0.62 -0.31,-0.62 -0.93,0 -0.62,0 -0.93,0 -0.93,0zm0.93 -59.56l0 0.93 0 -0.93zm0 -21.4l0 0.93 0 -0.93zm-0.93 8.37c-0.62,0.62 -0.93,1.55 -0.93,2.79 1.24,-0.62 1.55,-1.55 0.93,-2.79zm-0.93 17.68l0.93 0.93c0,-0.62 -0.15,-0.93 -0.46,-0.93 -0.31,0 -0.46,0 -0.46,0zm-2.79 33.5l-0.93 0.93c0,0 0.15,-0.16 0.46,-0.47 0.31,-0.31 0.46,-0.46 0.46,-0.46zm-1.86 -49.32l-1.86 0 1.86 0zm-2.79 30.71c0.62,-1.24 0.62,-1.86 0,-1.86 0,0 -0.15,0.16 -0.46,0.46 -0.31,0.31 -0.46,0.62 -0.46,0.93 0,0.31 0.31,0.46 0.93,0.46zm-0.93 -6.52l0.93 0.93 -0.93 -0.93zm-4.65 -160.06c-1.24,0 -1.86,0.62 -1.86,1.86 0,1.24 0.62,2.17 1.86,2.79 1.86,1.86 3.41,1.86 4.65,0 1.24,-3.1 0.31,-4.96 -2.79,-5.58l-1.86 0.93zm-0.93 174.02c-0.62,-3.1 -1.55,-2.48 -2.8,1.86l-1.86 3.72 4.65 -5.58zm-5.59 -147.96c0,-0.62 0,-0.93 0,-0.93 0,0 0,0.31 0,0.93zm-0.93 -36.29c-0.62,0 -0.93,0.16 -0.93,0.47 0,0.31 0,0.78 0,1.39l0.93 -1.86zm-3.72 -22.33c-0.62,0 -0.93,0.31 -0.93,0.93 0,0.62 0,0.93 0,0.93l0.93 -1.86zm-0.93 218.68c-0.62,-1.24 -1.24,-1.24 -1.86,0l0.93 3.72c0.62,-0.62 1.09,-1.4 1.39,-2.33 0.31,-0.93 0.16,-1.39 -0.46,-1.39zm0.93 25.12c-1.24,-1.24 -2.17,-0.93 -2.8,0.93 -1.24,1.86 -1.24,2.79 0,2.79 0.62,0.62 1.24,0.62 1.86,0 0.62,-0.62 0.93,-1.86 0.93,-3.72zm-6.52 -234.5l0.93 2.79 1.86 0 -2.79 -2.79zm-0.93 252.18l0 1.86c0,-0.62 0,-1.24 0,-1.86zm-2.79 3.72c-0.62,0.62 -0.93,0.93 -0.93,0.93l0.93 0c0,0 0,-0.31 0,-0.93zm-1.86 -26.06c0.62,-1.86 0.93,-3.26 0.93,-4.19 0,-0.93 -0.31,-1.7 -0.93,-2.33 -0.62,-0.62 -0.62,-0.93 0,-0.93 -3.72,0 -5.58,1.55 -5.58,4.65 0,3.1 1.86,4.04 5.58,2.79zm-0.93 -257.76c-0.62,-1.24 -1.86,-2.79 -3.72,-4.65 2.48,3.1 3.72,4.65 3.72,4.65zm-3.72 15.82c0,0.62 0,0.93 0,0.93l0 -0.93zm0 0c-0.62,-0.62 -0.93,-0.62 -0.93,0 0,0 0,0.31 0,0.93 0,-0.62 0.31,-0.93 0.93,-0.93zm-0.93 19.54l0 0.93 0 -0.93zm-1.86 7.44l1.86 1.86c0,-1.24 -0.46,-1.71 -1.4,-1.4 -0.93,0.31 -1.09,0.16 -0.46,-0.46zm-14.89 -32.57l-0.93 1.86 0.93 -1.86zm-0.93 8.38l0 0.93 0 -0.93zm-1.86 6.51l-0.93 0 0.93 0zm-0.93 -10.24c0,0 0,0 0,0zm-0.93 0.93c-1.24,-0.62 -1.55,-0.62 -0.93,0l0.93 0zm-0.93 13.03c0,0 0.31,0.31 0.93,0.93 0,0 -0.15,-0.15 -0.46,-0.46 -0.31,-0.31 -0.46,-0.46 -0.46,-0.46zm-10.24 -33.5l0 1.86c0.62,0.62 0.62,1.24 0,1.86 1.24,0 2.48,0.62 3.72,1.86 1.86,0 2.79,0 2.79,0 1.24,-0.62 0.31,-2.79 -2.79,-6.52l-3.72 0.93zm4.65 32.57c0.62,0 0.93,-0.15 0.93,-0.46 0,-0.31 -0.15,-0.46 -0.46,-0.46 -0.31,0 -0.46,0.15 -0.46,0.46 0,0.31 0,0.46 0,0.46zm-17.68 -14.89c-0.62,1.24 0.31,2.17 2.79,2.79 0,-1.86 -0.93,-2.79 -2.79,-2.79zm-6.52 -2.8c-0.62,-0.62 -1.55,-1.24 -2.79,-1.86 0.62,0 1.55,0.62 2.79,1.86zm-126.56 9.31l-0.93 0c0.62,0 0.93,0 0.93,0zm-2.79 358.26l0 2.79c0,-1.24 0,-2.17 0,-2.79zm-3.72 -193.56l0 0.93 0 -0.93c0.62,0 0.93,0.31 0.93,0.93 0,-0.62 0,-1.24 0,-1.86 0,0.62 -0.31,0.93 -0.93,0.93zm0.93 198.21c-0.62,-1.24 -0.93,-1.24 -0.93,0l0.93 1.86c0,-0.62 0,-1.24 0,-1.86zm-3.72 -206.58c-1.24,-0.62 -1.55,-0.93 -0.93,-0.93 0.62,0 0.93,-0.62 0.93,-1.86l-0.93 2.79 0.93 0zm0 13.96l-1.86 0c0.62,0 1.24,0 1.86,0zm-2.79 -120.97c1.86,0.62 2.48,-0.62 1.86,-3.72 -0.62,-4.96 -2.48,-5.89 -5.58,-2.79 -0.62,3.1 -0.78,5.12 -0.46,6.05 0.31,0.93 1.7,1.09 4.19,0.46zm0 9.31l-1.86 0.93c0.62,0 1.24,-0.31 1.86,-0.93zm-1.86 -5.58l0.93 -0.93 0 -0.93c0,0.62 -0.31,1.24 -0.93,1.86zm-1.86 -25.13c4.34,-2.48 4.34,-4.96 0,-7.44 -3.72,-2.48 -5.58,-1.55 -5.58,2.79 0,0.62 0,1.24 0,1.86 1.24,0 2.17,0.62 2.79,1.86 0.62,0.62 1.55,0.93 2.79,0.93zm-4.65 161.92c-0.62,0 -0.78,1.08 -0.46,3.26 0.31,2.17 0.78,3.88 1.4,5.12 0.62,-3.1 0.31,-5.89 -0.93,-8.37zm-0.93 173.08l0 0.93c0,-0.62 0,-0.93 0,-0.93zm1.86 -234.5c1.86,-0.62 1.55,-3.1 -0.93,-7.44 -2.48,1.24 -2.17,3.72 0.93,7.44zm0 5.58l0 0.93c0.62,0 0.93,-0.15 0.93,-0.46 0,-0.31 -0.31,-0.46 -0.93,-0.46zm-2.79 -126.56l0 0.93c0,0 0,-0.31 0,-0.93zm2.79 74.44c-1.24,-4.96 -2.79,-5.28 -4.65,-0.93 0,2.48 0.93,4.04 2.79,4.65 1.24,-1.86 1.86,-3.1 1.86,-3.72zm-3.72 61.42l0 -0.93 0 0.93zm0 223.33c0,-0.62 0,-0.93 0,-0.93 -0.62,0 -0.93,0.15 -0.93,0.46 0,0.31 0.31,0.46 0.93,0.46zm-0.93 51.18c-0.62,3.72 0.31,5.58 2.79,5.58 4.34,-1.24 5.27,-3.72 2.79,-7.44 -2.48,-3.1 -4.34,-3.1 -5.58,0 0,0.62 0,1.24 0,1.86zm4.65 24.2c1.24,-2.48 0.93,-4.04 -0.93,-4.65l-1.86 2.79c0.62,0 1.08,0.31 1.39,0.93 0.31,0.62 0.78,0.93 1.4,0.93zm-2.79 13.96l-0.93 -2.79 0.93 2.79zm-5.58 -468.07c3.1,-1.24 3.1,-2.79 0,-4.65 -0.62,0 -1.24,0.31 -1.86,0.93 0,0 0,0.62 0,1.86 0.62,0.62 1.24,1.24 1.86,1.86zm-17.68 66.07c-1.24,0.62 -1.24,1.86 0,3.72 0.62,0 0.93,-0.46 0.93,-1.39 0,-0.93 -0.31,-1.7 -0.93,-2.33zm-2.79 455.04c0,-0.62 -0.16,-0.93 -0.47,-0.93 -0.31,0 -0.46,0.31 -0.46,0.93 0,0.62 0.16,0.93 0.46,0.93 0.31,0 0.47,-0.31 0.47,-0.93zm0 14.89l-0.93 0.93c0.62,-0.62 0.93,-0.93 0.93,-0.93zm-3.72 -475.51l-0.93 -1.86 0.93 1.86zm1.86 512.74c0,-1.86 0,-3.41 0,-4.65 -0.62,-1.24 -1.24,-1.24 -1.86,0 0,2.48 0.62,4.03 1.86,4.65zm1.86 -15.82c1.24,-2.48 0.93,-4.65 -0.93,-6.52 -1.86,1.24 -1.55,3.41 0.93,6.52zm0 -555.54c0.62,0 0.93,0.15 0.93,0.46 0,0.31 0.31,0.16 0.93,-0.46l-1.86 0zm0.93 513.67l0.93 -0.93 -0.93 0.93zm0.93 -3.72c0,1.24 0,1.86 0,1.86 0,0 0.31,0 0.93,0l0 -0.93 -0.93 -0.93zm0.93 -101.43c0,0 0,-0.31 0,-0.93l0 0.93 0 -0.93c0,0.62 0,0.93 0,0.93zm0.93 -193.56c1.24,-0.62 1.24,-1.55 0,-2.79 -0.62,-1.24 -1.24,-0.93 -1.86,0.93 0.62,0.62 1.24,1.24 1.86,1.86zm4.65 -93.98c-1.24,-0.62 -2.17,0 -2.79,1.86 0,2.48 0.62,3.72 1.86,3.72l1.86 -3.72 -0.93 -1.86zm2.79 31.64l-0.93 -11.17c-1.86,8.06 -1.55,11.79 0.93,11.17zm0 22.33l-0.93 0.93 0.93 -0.93zm-4.65 136.79c-0.62,0.62 -0.93,1.09 -0.93,1.4 0,0.31 0.31,1.08 0.93,2.32 0,-2.48 0,-3.72 0,-3.72zm0.93 201l0 -0.93 0 0.93zm0 -39.08c-0.62,-0.62 -0.62,-1.09 0,-1.4 0.62,-0.31 0.62,-1.08 0,-2.33 -1.86,0.62 -1.86,1.86 0,3.72zm0.93 -241.02l0 -1.86 0 1.86zm0.93 -17.68c-1.24,1.24 -0.93,2.48 0.93,3.72 0,-0.62 0,-1.24 0,-1.86 0,-0.62 -0.31,-1.24 -0.93,-1.86zm1.86 81.89l-1.86 3.72 0.93 0 0.93 -3.72zm0 153.54l-0.93 -0.93 0.93 0.93zm0 -2.79c-0.62,0 -0.93,0.31 -0.93,0.93 0,0.62 0,0.93 0,0.93 0,0 0,-0.31 0,-0.93 0,-0.62 0.31,-0.93 0.93,-0.93zm-4.65 -349.89c0.62,0.62 1.4,0.15 2.33,-1.4 0.93,-1.55 1.7,-3.87 2.33,-6.98 -1.86,-5.58 -4.03,-6.2 -6.52,-1.86 -1.24,4.34 -0.93,8.07 0.93,11.17 0,-0.62 0.31,-0.93 0.93,-0.93zm8.37 69.79c-1.24,0 -2.17,0.93 -2.79,2.79 1.24,0 1.86,0 1.86,0 0.62,-0.62 0.93,-1.55 0.93,-2.79zm0 -121.9c0,0.62 0,0.93 0,0.93 0,0 0.31,0 0.93,0l-0.93 -0.93zm-0.93 195.42l-0.93 0 0.93 0zm-0.93 237.29l1.86 0.93 -1.86 -0.93zm0.93 37.22l0.93 0.93c0,0 -0.31,0 -0.93,0l0 -0.93zm0 8.37c0,0.62 0.15,0.93 0.46,0.93 0.31,0 0.46,-0.31 0.46,-0.93l-0.93 0zm0.93 -272.65c0.62,0 0.62,-0.31 0,-0.93l0 0.93zm0 -51.18l0.93 0 0 -0.93c-0.62,0 -0.93,0.31 -0.93,0.93zm0 -7.44l1.86 -0.93 -1.86 0.93zm0.93 330.35l0.93 0c0,0 -0.31,0 -0.93,0zm1.86 -479.24l0 -0.93 0 0.93zm-0.93 -48.39c1.86,-1.86 2.33,-3.72 1.4,-5.58 -0.93,-1.86 -2.64,-2.48 -5.12,-1.86 -1.24,1.86 -1.4,3.57 -0.47,5.12 0.93,1.55 2.33,2.33 4.19,2.33zm2.79 357.33l0.93 0 0.93 0 -1.86 0zm2.79 12.1l0 1.86c0.62,0 0.62,-0.62 0,-1.86zm-0.93 158.19l0.93 0.93 1.86 -0.93c-0.62,-0.62 -1.24,-0.93 -1.86,-0.93 -0.62,0 -0.93,0.31 -0.93,0.93zm1.86 41.87l0 -0.93 0 0.93zm2.79 -9.3c1.24,0 2.48,-1.55 3.72,-4.65 -1.24,-6.2 -2.79,-9.31 -4.65,-9.31 0,0.62 -0.62,2.17 -1.86,4.65 0.62,2.48 0.31,4.34 -0.93,5.58 0.62,0 1.24,0.93 1.86,2.79l1.86 0.93zm4.65 -80.03l0 -5.59 -1.86 1.86 1.86 3.72zm0.93 23.26l0 0.93 0.93 -0.93c-0.62,0.62 -0.93,0.62 -0.93,0zm0.93 0l-0.93 -0.93 0.93 0.93zm0.93 -174.94c0.62,-1.24 0.62,-2.48 0,-3.72 -0.62,-0.62 -0.93,-0.93 -0.93,-0.93 -0.62,1.86 -0.31,3.41 0.93,4.65zm1.86 176.8l0 -0.93 0 0.93zm-0.93 -101.43l1.86 1.86 -1.86 -1.86zm0.93 -73.52c-0.62,-0.62 -0.93,-0.62 -0.93,0l0.93 2.8 0.93 -0.93 -0.93 -1.86zm0 -171.22c-0.62,-0.62 -0.93,-0.93 -0.93,-0.93l-0.93 2.79c1.24,3.72 2.17,4.65 2.79,2.79 0.62,-0.62 0.93,-1.86 0.93,-3.72 -0.62,-1.86 -1.24,-2.17 -1.86,-0.93zm2.79 185.18c0.62,-1.86 0.62,-3.1 0,-3.72 -0.62,0 -0.93,0.47 -0.93,1.4 0,0.93 0.31,1.7 0.93,2.33zm0.93 59.56l0.93 -0.93 -0.93 0.93zm2.79 78.17c0,0 0.15,0.31 0.46,0.93 0.31,0.62 0.78,0.62 1.4,0l-1.86 -0.93zm3.72 -93.98c0,0 0,-0.62 0,-1.86 0,-1.24 -0.31,-1.86 -0.93,-1.86l0.93 3.72zm4.65 134c0,0 0.16,-1.24 0.46,-3.72 0.31,-2.48 -0.15,-4.03 -1.39,-4.65 -0.62,0.62 -0.31,3.41 0.93,8.37zm-0.93 -392.7c1.24,-0.62 1.86,-1.55 1.86,-2.79 -0.62,-2.48 -1.86,-3.41 -3.72,-2.79 -1.24,0 -1.55,1.24 -0.93,3.72 0,0 0.15,0.31 0.46,0.93 0.31,0.62 0.62,0.93 0.93,0.93 0.31,0 0.78,0 1.4,0zm78.17 179.6c0,0 0.31,0.62 0.93,1.86 0,-0.62 -0.31,-1.24 -0.93,-1.86zm4.65 10.24c1.86,-1.86 1.86,-3.1 0,-3.72 -1.24,0.62 -1.24,1.86 0,3.72zm2.79 6.52l0.93 0c0,0 -0.31,0 -0.93,0zm2.79 7.44c0.62,0 1.09,0 1.4,0 0.31,0 0.46,-0.31 0.46,-0.93 -0.62,0 -1.09,0.16 -1.4,0.46 -0.31,0.31 -0.46,0.47 -0.46,0.47zm3.72 1.86c0,0.62 0.31,0.62 0.93,0l-0.93 0zm0.93 1.86c0.62,0 0.93,-0.31 0.93,-0.93 -0.62,-0.62 -0.93,-0.31 -0.93,0.93zm4.65 -3.72l0.93 0c0,0 -0.31,0 -0.93,0zm4.65 -7.44l0 -0.93 0 0.93zm0.93 3.72l0 -0.93 0 0.93zm1.86 24.19l-0.93 -0.93 0.93 0.93zm-0.93 -28.85l0.93 0c-0.62,0 -0.93,0 -0.93,0zm5.58 22.33c0,0.62 0.16,0.78 0.47,0.46 0.31,-0.31 0.46,-0.78 0.46,-1.39l-0.93 0.93zm-0.93 -24.19l1.86 -0.93 -1.86 0.93zm0 -10.24c1.86,-0.62 2.79,-2.48 2.79,-5.59 -0.62,-0.62 -1.39,-1.08 -2.33,-1.39 -0.93,-0.31 -1.7,-0.16 -2.33,0.46 -0.62,-0.62 -1.08,-0.31 -1.39,0.93 -0.31,1.24 -0.46,1.86 -0.46,1.86 0.62,0 0.93,0.93 0.93,2.79 1.24,0.62 2.17,0.93 2.79,0.93zm3.72 72.58c0,0 0,0 0,0zm0 -21.41l0 -0.93 -0.93 0 0.93 0c0,0.62 0,0.93 0,0.93zm-0.93 -1.86l0.93 0 -0.93 0zm11.17 -12.1c0.62,0 0.93,-0.15 0.93,-0.46 0,-0.31 -0.31,-0.46 -0.93,-0.46 0,0 -0.15,0.15 -0.46,0.46 -0.31,0.31 -0.15,0.46 0.46,0.46zm0.93 -18.61c0,0 -0.31,0 -0.93,0l0.93 0zm-0.93 0c0,-0.62 0.31,-0.93 0.93,-0.93 -0.62,0 -0.93,0.31 -0.93,0.93zm2.79 11.17l0 2.79 0.93 0 -0.93 -2.79zm0.93 -13.03l0 -0.93 0 0.93zm0 26.99l1.86 -1.86c-0.62,0 -0.93,0.15 -0.93,0.46 0,0.31 -0.31,0.78 -0.93,1.4zm0.93 -26.06l0 0.93 0 -0.93zm5.58 97.71l0.93 1.86c0,0 -0.31,-0.62 -0.93,-1.86zm-4.65 -60.48c1.86,2.48 3.72,2.17 5.58,-0.93 1.24,-1.86 0.93,-2.8 -0.93,-2.8 -0.62,0 -1.55,0 -2.79,0 -1.24,0 -2.02,0.47 -2.33,1.4 -0.31,0.93 -0.15,1.7 0.47,2.33zm6.51 -73.52c0,1.86 0.62,2.95 1.86,3.26 1.24,0.31 2.17,-0.47 2.79,-2.33 -0.62,-1.24 -1.55,-2.02 -2.79,-2.33 -1.24,-0.31 -1.86,0.15 -1.86,1.39zm0 -13.03l0.93 0.93c-0.62,0 -0.93,-0.31 -0.93,-0.93zm3.72 110.74l0.93 0.93c0,0 -0.15,-0.16 -0.46,-0.47 -0.31,-0.31 -0.46,-0.46 -0.46,-0.46zm0 6.52c0,-0.62 0,-0.93 0,-0.93l0 0.93zm-1.86 -82.82c0.62,2.48 0.93,3.72 0.93,3.72 0.62,0 0.62,-0.62 0,-1.86 -0.62,-1.24 -0.93,-1.86 -0.93,-1.86zm0 22.33l0.93 -0.93c-0.62,-0.62 -0.93,-0.31 -0.93,0.93zm1.86 95.85l0.93 1.86 -0.93 -1.86zm0 -27.92l0.93 -0.93c-0.62,0 -0.93,0.16 -0.93,0.47 0,0.31 0,0.46 0,0.46zm1.86 -109.81c-1.86,0.62 -1.86,1.55 0,2.79 1.24,-1.24 1.86,-1.86 1.86,-1.86 0.62,-0.62 0.62,-1.08 0,-1.39 -0.62,-0.31 -1.24,-0.15 -1.86,0.46zm2.79 81.89l1.86 -0.93 -1.86 0.93zm3.72 101.43l1.86 -1.86c-0.62,0 -1.09,0.16 -1.4,0.47 -0.31,0.31 -0.46,0.78 -0.46,1.39zm0 -103.29l1.86 0 -1.86 0zm2.79 92.13l-0.93 -0.93 0.93 0.93zm-44.67 -185.18c22.95,-11.17 39.39,-22.95 49.32,-35.36 9.93,-12.41 17.99,-31.02 24.19,-55.83 9.31,-38.46 6.2,-75.07 -9.31,-109.81 -14.27,-30.4 -33.19,-52.73 -56.76,-67 -13.65,-8.69 -23.88,-14.43 -30.7,-17.22 -6.83,-2.79 -16.13,-4.5 -27.92,-5.12 -6.83,-0.62 -12.72,1.55 -17.68,6.52 -4.96,4.96 -7.44,9.61 -7.44,13.96 -0.62,21.09 -1.24,40.33 -1.86,57.7 0,13.65 -0.15,49.78 -0.46,108.41 -0.31,58.63 -0.15,94.76 0.46,108.41 0,3.72 1.4,6.67 4.19,8.84 2.79,2.17 6.05,2.95 9.77,2.33 2.48,0 6.05,-0.31 10.7,-0.93 4.65,-0.62 8.22,-1.24 10.7,-1.86 2.48,-0.62 5.74,-1.24 9.77,-1.86 4.03,-0.62 7.6,-1.39 10.7,-2.33 3.1,-0.93 6.67,-2.17 10.7,-3.72 4.03,-1.55 7.91,-3.26 11.63,-5.12zm47.46 173.08l0 0zm0.93 4.65l-1.86 0.93c0.62,0.62 1.08,0.78 1.39,0.47 0.31,-0.31 0.46,-0.78 0.46,-1.4zm0 14.89c1.86,-1.24 1.86,-1.86 0,-1.86 0,0.62 0,1.24 0,1.86zm2.79 -93.99l0.93 1.86 -0.93 -1.86zm-0.93 4.65l0.93 0.93c0,-0.62 -0.31,-0.93 -0.93,-0.93zm0.93 27.92l0.93 1.86c0,-0.62 -0.31,-1.24 -0.93,-1.86zm0.93 -2.79l0.93 0.93 -0.93 -0.93zm0.93 -4.65c0.62,-0.62 0.62,-1.24 0,-1.86 -0.62,0.62 -0.93,1.24 -0.93,1.86 0,0.62 0.31,0.62 0.93,0zm0.93 -19.54l0 1.86c0,-0.62 0,-1.24 0,-1.86zm48.39 152.61c-3.72,1.24 -4.65,2.79 -2.79,4.65 3.72,0.62 5.28,-0.62 4.65,-3.72 0,-1.24 -0.62,-1.55 -1.86,-0.93zm-2.79 -0.93c0.62,0.62 0.93,0.93 0.93,0.93l0 -0.93c0,0 -0.31,0 -0.93,0zm2.79 -34.43c-0.62,0 -1.24,0.31 -1.86,0.93 -0.62,0.62 -0.93,0.93 -0.93,0.93 0.62,2.48 2.17,2.48 4.65,0 0,-1.24 -0.15,-1.86 -0.46,-1.86 -0.31,0 -0.78,0 -1.4,0zm-4.65 31.64l1.86 0c-0.62,0 -1.24,0 -1.86,0zm0 8.37l-0.93 0.93 0.93 -0.93zm-11.17 -62.35l0 0c0,0.62 0.31,0.93 0.93,0.93 0,-0.62 -0.31,-0.93 -0.93,-0.93zm-1.86 5.58l0.93 0.93c0,0 -0.31,0 -0.93,0 -0.62,0 -0.62,-0.31 0,-0.93zm-1.86 -6.51c-1.24,0 -1.86,0.31 -1.86,0.93l1.86 -0.93zm-2.79 20.47l0 0.93 0 -0.93zm-12.1 -29.78c-0.62,1.86 -0.31,3.1 0.93,3.72 0.62,-1.86 0.31,-3.1 -0.93,-3.72zm-5.58 24.2c-0.62,-0.62 -1.55,-0.62 -2.79,0 1.86,0 2.79,0 2.79,0zm-5.58 -1.86l0.93 0c0,-0.62 -0.31,-0.62 -0.93,0zm0.93 -10.24l1.86 0 -1.86 0zm3.72 20.47c-1.24,0 -2.17,0.31 -2.79,0.93l3.72 4.65 -0.93 -4.65 0 -0.93zm1.86 13.96c-3.1,0 -3.41,0.93 -0.93,2.79l2.79 0c0.62,-1.24 0.62,-2.17 0,-2.79 -0.62,-0.62 -1.24,-0.62 -1.86,0zm0.93 38.15l0 -0.93c0,0 0,0.31 0,0.93zm5.59 -6.51c0.62,-0.62 0.78,-1.09 0.46,-1.4 -0.31,-0.31 -0.78,-0.46 -1.4,-0.46l0.93 1.86zm-3.72 -17.68c-1.86,2.48 -1.39,4.34 1.4,5.58 2.79,1.24 4.81,0 6.05,-3.72 -3.1,-1.86 -5.27,-2.17 -6.51,-0.93 -0.62,0 -0.93,-0.31 -0.93,-0.93zm13.03 49.32l0.93 -0.93c0,0 0,0.15 0,0.46 0,0.31 -0.31,0.46 -0.93,0.46zm1.86 -72.58c0.62,-1.24 0.31,-2.48 -0.93,-3.72 -0.62,0 -0.93,0.62 -0.93,1.86 0.62,0.62 1.24,1.24 1.86,1.86zm4.65 -14.89l-1.86 0.93c0.62,0 1.24,-0.31 1.86,-0.93zm-1.86 60.48l0.93 -0.93c0,0 -0.31,0.31 -0.93,0.93zm3.72 0l0 0.93 0 -0.93zm-0.93 -28.85c-1.24,0.62 -1.86,1.24 -1.86,1.86 -0.62,1.86 0.31,2.48 2.79,1.86l1.86 -1.86c-0.62,-0.62 -1.55,-1.24 -2.79,-1.86zm6.52 56.76c3.72,-0.62 4.65,-2.17 2.79,-4.65 -3.1,1.86 -4.03,3.41 -2.79,4.65zm3.72 -5.58l1.86 -1.86 -1.86 1.86zm2.79 -13.03l0.93 0 -0.93 0zm-1.86 -9.31c0,2.48 1.24,3.1 3.72,1.86 3.1,-1.24 4.34,-2.48 3.72,-3.72 0,-0.62 -0.93,-0.93 -2.79,-0.93 -1.24,0 -2.02,0.47 -2.33,1.4 -0.31,0.93 -1.08,1.39 -2.33,1.39zm23.26 5.59l0.93 -0.93c-0.62,0 -0.93,0.31 -0.93,0.93z"/>
   <path class="fil0" d="M854.93 463.93c2.48,7.44 7.91,23.89 16.28,49.32 8.38,25.44 14.11,44.98 17.22,58.63 1.86,8.07 5.58,16.59 11.17,25.59 5.59,9 11.01,16.44 16.29,22.33 5.27,5.89 9.61,11.79 13.03,17.68 3.41,5.89 4.5,10.23 3.26,13.03 -1.24,2.79 -6.2,4.96 -14.89,6.51 -8.69,1.55 -22.02,1.7 -40.01,0.46 -3.72,-0.62 -23.42,-0.62 -59.09,0 -35.67,0.62 -55.06,1.24 -58.16,1.86 -5.58,0.62 -8.69,-0.93 -9.3,-4.65 -0.62,-2.48 2.79,-11.79 10.24,-27.92 6.82,-14.89 8.06,-30.09 3.72,-45.59 -6.2,-21.09 -13.65,-49.01 -22.33,-83.75 -2.48,-8.06 -7.75,-12.1 -15.82,-12.1 -6.82,0 -11.79,0 -14.89,0 -15.51,0.62 -44.36,0.62 -86.54,0 -22.95,-1.24 -46.22,-0.62 -69.79,1.86 -4.96,0.62 -8.07,3.1 -9.31,7.44 -3.72,11.79 -5.89,18.61 -6.51,20.47 -1.24,3.1 -2.79,8.53 -4.65,16.28 -1.86,7.76 -3.72,13.8 -5.58,18.15 -4.96,11.79 -9,26.37 -12.1,43.74 -3.72,16.13 -2.48,30.4 3.72,42.81 3.1,6.82 4.96,10.86 5.58,12.1 1.24,5.58 -0.31,9.61 -4.65,12.09 -1.24,1.24 -4.03,1.86 -8.37,1.86 -18.61,0.62 -36.91,0 -54.91,-1.86 -9.3,-0.62 -13.96,-3.41 -13.96,-8.37 0,-3.72 2.79,-7.44 8.37,-11.17 17.37,-10.55 31.64,-32.26 42.81,-65.14 7.44,-22.33 14.42,-43.74 20.94,-64.21 6.51,-20.47 13.18,-42.34 20.01,-65.61 6.82,-23.26 12.41,-41.72 16.75,-55.37 7.44,-23.57 17.06,-57.23 28.85,-100.96 11.79,-43.74 20.47,-74.91 26.06,-93.52 2.48,-8.69 6.2,-21.56 11.17,-38.62 4.96,-17.06 8.69,-29.62 11.17,-37.69 1.24,-4.96 1.86,-11.94 1.86,-20.94 0,-9 -1.86,-19.39 -5.58,-31.18 -1.24,-1.86 -3.41,-5.43 -6.52,-10.7 -3.1,-5.27 -4.96,-8.22 -5.58,-8.84 -3.1,-6.2 -3.72,-10.86 -1.86,-13.96 1.24,-1.86 3.1,-3.72 5.58,-5.58 2.48,-1.24 6.52,-2.48 12.1,-3.72 5.58,-1.24 11.79,-2.33 18.61,-3.26 6.83,-0.93 11.17,-1.71 13.03,-2.33 2.48,-0.62 6.83,-1.71 13.03,-3.26 6.2,-1.55 10.39,-2.63 12.56,-3.26 2.17,-0.62 5.74,-1.24 10.7,-1.86 4.96,-0.62 8.22,-0.78 9.77,-0.46 1.55,0.31 4.03,0.62 7.44,0.93 3.41,0.31 5.74,1.24 6.98,2.79 1.24,1.55 2.94,3.41 5.12,5.58 2.17,2.17 3.72,5.12 4.65,8.84 0.93,3.72 1.86,7.91 2.79,12.56 0.93,4.65 1.7,9.77 2.33,15.35 2.48,14.27 5.58,28.69 9.3,43.27 3.72,14.58 9.31,33.65 16.75,57.23 7.44,23.57 12.41,39.7 14.89,48.39 6.82,21.71 20.63,68.24 41.41,139.58 20.78,71.34 32.41,111.05 34.89,119.11zm-143.3 -3.72c4.96,0 8.99,-2.17 12.09,-6.52 3.1,-4.34 4.03,-9 2.79,-13.96 -4.34,-13.65 -10.54,-33.5 -18.61,-59.56 -8.06,-26.06 -13.65,-45.29 -16.75,-57.7 -11.17,-36.6 -18.61,-64.21 -22.33,-82.82 -0.62,-4.34 -2.64,-12.1 -6.05,-23.26 -3.41,-11.17 -5.43,-18.3 -6.05,-21.4 -4.34,-18.61 -7.75,-34.74 -10.24,-48.39 -5.58,24.19 -15.04,59.71 -28.38,106.55 -13.34,46.84 -21.87,76.77 -25.59,89.8 -3.1,10.55 -6.36,21.56 -9.77,33.04 -3.41,11.48 -7.29,24.19 -11.63,38.15 -4.34,13.96 -7.76,24.66 -10.24,32.1 -1.24,4.34 -1.55,7.6 -0.93,9.77 0.62,2.17 2.17,3.72 4.65,4.65 2.48,0.93 6.52,1.39 12.1,1.39 4.96,0 10.86,0 17.68,0 6.82,0 13.49,-0.15 20.01,-0.46 6.51,-0.31 12.25,-0.78 17.21,-1.39 0.62,0 3.26,0.15 7.91,0.46 4.65,0.31 7.6,0.46 8.84,0.46 12.41,0 18.61,0 18.61,0 6.2,0.62 14.58,0.62 25.13,0 4.34,0 10.85,-0.31 19.54,-0.93zm644.87 71.65c4.96,-3.72 10.7,-4.81 17.21,-3.26 6.52,1.55 9.46,6.36 8.84,14.43 0,4.34 -2.17,9.93 -6.52,16.75 -24.81,41.57 -53.35,71.65 -85.61,90.26 -17.99,10.55 -32.41,17.53 -43.27,20.94 -10.85,3.41 -27.14,5.74 -48.85,6.98 -54.59,4.34 -106.7,-14.27 -156.33,-55.83 -44.67,-37.22 -77.86,-82.2 -99.57,-134.93 -17.37,-41.56 -26.83,-84.99 -28.38,-130.28 -1.55,-45.29 4.5,-89.02 18.15,-131.21 15.51,-45.29 37.38,-85.92 65.61,-121.91 28.22,-35.98 61.88,-62.65 100.96,-80.03 37.22,-17.99 75.69,-25.12 115.39,-21.4 23.57,2.48 43.74,8.69 60.48,18.61 16.75,9.31 34.74,23.89 53.97,43.74 2.48,3.72 5.89,7.91 10.24,12.56 4.34,4.65 7.76,8.37 10.24,11.17 2.48,2.79 4.81,6.05 6.98,9.77 2.17,3.72 3.26,7.6 3.26,11.63 0,4.03 -1.24,8.84 -3.72,14.42 -11.78,24.2 -23.88,48.39 -36.29,72.59 -0.62,0.62 -1.7,2.63 -3.26,6.05 -1.55,3.41 -2.79,5.89 -3.72,7.44 -0.93,1.55 -2.17,3.41 -3.72,5.58 -1.55,2.17 -3.26,3.72 -5.12,4.65 -1.86,0.93 -4.03,1.39 -6.51,1.39 -4.96,-0.62 -9.31,-3.1 -13.03,-7.44 -3.72,-4.34 -6.36,-10.08 -7.91,-17.21 -1.55,-7.13 -2.64,-13.65 -3.26,-19.54 -0.62,-5.89 -1.08,-13.03 -1.39,-21.4 -0.31,-8.37 -0.78,-13.49 -1.4,-15.35 -1.86,-27.3 -9.61,-52.11 -23.26,-74.44 -19.23,-31.64 -44.05,-43.74 -74.44,-36.29 -16.13,3.72 -32.26,13.03 -48.39,27.92 -24.81,21.09 -42.19,41.56 -52.11,61.42 -10.54,21.09 -19.23,44.04 -26.06,68.86 -6.82,24.81 -11.48,49.32 -13.96,73.52 -2.48,24.19 -3.72,47.61 -3.72,70.26 0,22.65 1.55,44.2 4.65,64.67 6.2,49.01 14.74,86.85 25.59,113.53 10.86,26.68 32.41,54.59 64.67,83.75 16.13,14.89 31.95,24.35 47.46,28.38 15.51,4.03 33.5,4.81 53.97,2.33 27.3,-2.48 58.62,-19.54 93.98,-51.18 6.2,-5.58 12.87,-13.03 20.01,-22.33 7.13,-9.3 13.18,-15.82 18.15,-19.54zm479.23 -522.97c20.47,-1.86 32.57,1.55 36.3,10.24 1.86,5.58 -2.48,11.79 -13.03,18.61 -4.34,2.48 -8.37,6.36 -12.09,11.63 -3.72,5.28 -6.36,10.39 -7.91,15.35 -1.55,4.96 -2.33,9 -2.33,12.1 -1.24,21.71 -1.86,33.5 -1.86,35.36 0,8.69 -0.31,49.94 -0.93,123.76 -0.62,73.82 -0.62,115.39 0,124.69l0.93 62.35c1.24,70.72 1.86,121.59 1.86,152.61 0,14.89 3.1,26.67 9.3,35.36 0.62,1.86 2.33,4.81 5.12,8.84 2.8,4.03 5.12,7.75 6.98,11.17 1.86,3.41 3.41,6.98 4.65,10.7 1.24,3.72 1.09,6.98 -0.46,9.77 -1.55,2.79 -4.81,4.81 -9.77,6.05 -9.31,0 -24.04,-0.31 -44.2,-0.93 -20.16,-0.62 -38.78,-0.93 -55.83,-0.93 -17.06,0 -31.48,0.93 -43.27,2.79 -8.06,1.24 -13.96,0.93 -17.68,-0.93 -7.44,-2.48 -10.55,-6.82 -9.31,-13.03 0,-1.86 1.55,-4.65 4.65,-8.37 15.51,-20.47 25.12,-46.53 28.85,-78.17 2.48,-21.09 3.41,-48.7 2.79,-82.82 0,-11.79 -0.15,-25.9 -0.46,-42.34 -0.31,-16.44 -0.62,-32.26 -0.93,-47.46 -0.31,-15.2 -0.46,-29 -0.46,-41.41 0,-4.34 -1.55,-7.91 -4.65,-10.7 -3.1,-2.79 -6.51,-4.19 -10.24,-4.19 -27.91,0 -66.07,0.31 -114.46,0.93 -4.96,0 -9.31,1.71 -13.03,5.12 -3.72,3.41 -5.27,7.6 -4.65,12.56l0.93 75.37c1.24,70.72 1.86,121.59 1.86,152.61 0,14.89 2.79,26.67 8.38,35.36 0.62,1.86 2.32,4.81 5.12,8.84 2.79,4.03 5.12,7.75 6.98,11.17 1.86,3.41 3.57,6.98 5.12,10.7 1.55,3.72 1.4,6.98 -0.46,9.77 -1.86,2.79 -5.27,4.81 -10.24,6.05 -9.31,0 -23.89,-0.31 -43.74,-0.93 -19.85,-0.62 -38.31,-0.93 -55.37,-0.93 -17.06,0 -31.8,0.93 -44.2,2.79 -7.44,1.24 -13.33,0.93 -17.68,-0.93 -7.44,-2.48 -10.55,-6.82 -9.31,-13.03 0.62,-1.86 2.17,-4.65 4.65,-8.37 15.51,-20.47 25.13,-46.53 28.85,-78.17 2.48,-21.09 3.72,-48.7 3.72,-82.82 -1.86,-119.11 -2.79,-181.15 -2.79,-186.11 0,-4.96 0.62,-27.3 1.86,-67 1.24,-39.7 0.62,-62.04 -1.86,-67 -0.62,-12.41 -1.24,-37.84 -1.86,-76.3 0,-17.99 -5.28,-31.64 -15.82,-40.94 -6.83,-5.58 -10.55,-9 -11.17,-10.24 -3.72,-5.58 -3.41,-9.93 0.93,-13.03 1.24,-1.24 3.41,-1.86 6.51,-1.86 20.47,-3.1 67.31,-4.34 140.52,-3.72 21.09,-1.86 33.19,1.55 36.29,10.24 1.86,5.58 -2.48,11.79 -13.03,18.61 -4.34,2.48 -8.22,6.36 -11.63,11.63 -3.41,5.28 -6.05,10.39 -7.91,15.35 -1.86,4.96 -2.79,9 -2.79,12.1 -0.62,21.71 -0.93,33.5 -0.93,35.36 -0.62,19.23 -0.93,47.92 -0.93,86.07 0,38.15 -0.31,66.54 -0.93,85.15 0,6.2 2.17,11.32 6.51,15.35 4.34,4.03 9.62,6.05 15.82,6.05 0,0 12.25,0 36.76,0 24.5,0 46.06,0 64.67,0 6.2,0 11.63,-2.32 16.28,-6.98 4.65,-4.65 7.29,-10.39 7.91,-17.22 0,-11.17 0,-17.68 0,-19.54 0,-11.17 0.78,-31.64 2.33,-61.41 1.55,-29.78 1.4,-53.35 -0.46,-70.72 0,-4.34 -0.62,-12.56 -1.86,-24.66 -1.24,-12.1 -1.86,-20.94 -1.86,-26.52 0,-17.37 -5.28,-30.71 -15.82,-40.01 -6.82,-5.58 -10.54,-9 -11.17,-10.24 -3.72,-5.58 -3.41,-9.93 0.93,-13.03 1.24,-1.24 3.41,-1.86 6.52,-1.86 20.47,-3.1 67.31,-4.34 140.51,-3.72zm507.16 518.32c4.96,-1.86 8.69,0 11.17,5.58 1.24,3.1 1.55,7.76 0.93,13.96 0,4.34 -0.78,17.84 -2.33,40.48 -1.55,22.64 -2.94,38.62 -4.19,47.93 -0.62,6.2 -2.95,11.32 -6.98,15.35 -4.03,4.03 -9.15,6.36 -15.35,6.98 -3.1,0.62 -7.76,0.62 -13.96,0 -55.83,-0.62 -130.9,-0.62 -225.2,0 -74.44,-1.24 -121.59,-0.93 -141.44,0.93 -9.3,0.62 -15.2,0.31 -17.68,-0.93 -7.44,-2.48 -10.55,-6.82 -9.31,-13.03 0.62,-1.86 2.17,-4.65 4.65,-8.37 15.51,-20.47 25.13,-46.53 28.85,-78.17 2.48,-21.09 3.72,-48.7 3.72,-82.82 -1.86,-119.11 -2.79,-181.15 -2.79,-186.11 0,-4.96 0.62,-27.3 1.86,-67 1.24,-39.7 0.62,-62.04 -1.86,-67 -3.1,-34.12 -3.72,-59.56 -1.86,-76.3 1.86,-16.75 -3.41,-30.4 -15.82,-40.94 -6.83,-5.58 -10.55,-9 -11.17,-10.24 -3.72,-5.58 -3.41,-9.93 0.93,-13.03 1.24,-1.24 3.41,-1.86 6.51,-1.86 12.41,-1.86 26.68,-2.94 42.81,-3.26 16.13,-0.31 35.52,-0.16 58.16,0.46 22.65,0.62 38,0.93 46.06,0.93 30.4,0 74.76,-0.46 133.07,-1.39 58.31,-0.93 91.81,-1.4 100.5,-1.4 6.2,0 10.85,0 13.96,0 6.2,0.62 11.32,3.1 15.35,7.44 4.03,4.34 6.36,9.31 6.98,14.89 0.62,5.58 1.7,16.75 3.26,33.5 1.55,16.75 2.64,29.78 3.26,39.08 0.62,6.2 0.31,10.86 -0.93,13.96 -1.86,4.34 -5.58,6.2 -11.17,5.58 -5.59,-0.62 -11.94,-5.74 -19.08,-15.35 -7.13,-9.62 -13.8,-20.01 -20.01,-31.17 -6.2,-11.17 -14.89,-21.09 -26.06,-29.78 -11.17,-8.69 -23.26,-12.41 -36.29,-11.17 -14.89,0 -39.7,-0.16 -74.44,-0.46 -34.74,-0.31 -58.31,-0.47 -70.72,-0.47 -3.72,0 -7.29,1.09 -10.7,3.26 -3.41,2.17 -6.2,4.81 -8.37,7.91 -2.17,3.1 -3.26,6.82 -3.26,11.17 -1.24,26.06 -1.86,44.67 -1.86,55.83 -0.62,12.41 -0.93,26.67 -0.93,42.8 0,16.13 0,30.87 0,44.2 0,13.34 0,28.38 0,45.13 0,16.75 -0.31,31.02 -0.93,42.81 0,12.41 9,18.3 26.98,17.68 1.86,0 4.96,0 9.31,0 4.34,0 9,0 13.96,0 4.96,0 10.08,0 15.35,0 5.28,0 11.17,-1.24 17.68,-3.72 6.52,-2.48 12.41,-6.05 17.68,-10.7 5.27,-4.65 8.84,-10.08 10.7,-16.28 1.24,-4.96 2.17,-8.07 2.79,-9.31 1.86,-3.72 4.34,-5.58 7.44,-5.58 3.1,0 5.58,1.55 7.44,4.65 1.24,1.86 1.86,4.96 1.86,9.3 1.24,4.96 2.33,11.01 3.26,18.15 0.93,7.13 1.86,14.11 2.79,20.94 0.93,6.83 1.7,13.03 2.33,18.61 2.48,15.51 4.03,26.67 4.65,33.5 0.62,4.96 0.31,8.37 -0.93,10.24 -1.24,3.1 -4.96,3.41 -11.17,0.93 -0.62,0 -3.88,-4.19 -9.77,-12.56 -5.89,-8.37 -13.8,-16.28 -23.73,-23.73 -9.93,-7.44 -20.16,-10.86 -30.71,-10.24 -11.79,0 -24.5,0.31 -38.15,0.93 -8.06,0 -14.89,3.1 -20.47,9.31 -5.58,6.2 -8.37,13.34 -8.37,21.4l0.93 62.35c1.24,70.72 1.86,121.59 1.86,152.61 0,4.96 0.62,12.72 1.86,23.26 1.86,8.69 6.2,16.13 13.03,22.33 6.82,6.2 14.89,9.31 24.19,9.31 39.7,0 77.24,0 112.6,0 10.55,0 20.47,-1.4 29.78,-4.19 9.3,-2.79 17.52,-6.82 24.66,-12.1 7.13,-5.27 13.5,-10.85 19.08,-16.75 5.58,-5.89 10.54,-12.41 14.89,-19.54 4.34,-7.13 7.91,-13.03 10.7,-17.68 2.79,-4.65 5.27,-9.93 7.44,-15.82 2.17,-5.89 3.57,-8.84 4.19,-8.84 1.86,-4.96 4.03,-7.76 6.52,-8.37zm476.44 0c4.96,-1.86 8.69,0 11.17,5.58 1.24,3.1 1.55,7.76 0.93,13.96 0,4.34 -0.78,17.84 -2.33,40.48 -1.55,22.64 -2.94,38.62 -4.19,47.93 0,3.72 -1.09,7.29 -3.26,10.7 -2.17,3.41 -4.81,6.05 -7.91,7.91 -3.1,1.86 -6.82,3.1 -11.17,3.72 -3.1,0.62 -7.76,0.62 -13.96,0 -55.83,-0.62 -130.9,-0.62 -225.2,0 -74.44,-1.24 -121.59,-0.93 -141.44,0.93 -9.3,0.62 -15.2,0.31 -17.68,-0.93 -7.44,-2.48 -10.55,-6.82 -9.31,-13.03 0.62,-1.86 2.17,-4.65 4.65,-8.37 15.51,-20.47 25.13,-46.53 28.85,-78.17 2.48,-21.09 3.72,-48.7 3.72,-82.82 -1.86,-119.11 -2.79,-181.15 -2.79,-186.11 0,-4.96 0.62,-27.3 1.86,-67 1.24,-39.7 0.62,-62.04 -1.86,-67 -3.1,-34.12 -3.72,-59.56 -1.86,-76.3 1.86,-16.75 -3.41,-30.4 -15.82,-40.94 -6.83,-5.58 -10.55,-9 -11.17,-10.24 -3.72,-5.58 -3.41,-9.93 0.93,-13.03 1.24,-1.24 3.41,-1.86 6.51,-1.86 12.41,-1.86 26.83,-2.79 43.27,-2.79 16.44,0 35.67,0.15 57.69,0.46 22.02,0.31 37.38,0.46 46.06,0.46 8.69,0 15.04,1.4 19.08,4.19 4.03,2.79 5.74,6.05 5.12,9.77 -0.62,3.72 -2.8,6.82 -6.52,9.3 -1.86,2.48 -4.19,5.12 -6.98,7.91 -2.79,2.8 -5.27,5.89 -7.44,9.31 -2.17,3.41 -4.03,6.98 -5.58,10.7 -1.55,3.72 -2.33,7.13 -2.33,10.24 -1.24,26.68 -1.86,40.02 -1.86,40.02 0,8.69 -0.31,49.94 -0.93,123.76 -0.62,73.82 -0.62,115.39 0,124.69l0.93 62.35c1.24,70.72 1.86,121.59 1.86,152.61 0,4.96 0.62,12.72 1.86,23.26 1.86,8.69 6.2,16.13 13.03,22.33 6.82,6.2 14.89,9.31 24.19,9.31 39.7,0 77.24,0 112.6,0 10.55,0 20.47,-1.4 29.78,-4.19 9.3,-2.79 17.52,-6.82 24.66,-12.1 7.13,-5.27 13.5,-10.85 19.08,-16.75 5.58,-5.89 10.54,-12.41 14.89,-19.54 4.34,-7.13 7.91,-13.03 10.7,-17.68 2.79,-4.65 5.27,-9.93 7.44,-15.82 2.17,-5.89 3.57,-8.84 4.19,-8.84 1.86,-4.96 4.03,-7.76 6.52,-8.37z"/>
  </g>
 </g>
</svg>
